# xmcd
#
# Track frame offsets:
#	150
#	18712
#	35636
#	51087
#	69288
#	92115
#	107217
#	124666
#	144427
#	165126
#	179985
#	196074
#
# Disc length: 2844 seconds
#
# Revision: 0
# Processed by: cddbd v1.5.1PL2 Copyright (c) Steve Scherf et al.
# Submitted via: EasyCDDAExtractor 4.6.9.1
#
DISCID=a40b1a0c
DTITLE=Charlies Landsborough - With You In Mind
DYEAR=1996
DGENRE=Country
TTITLE0=No Time At All
TTITLE1=How Do You Do Those Things
TTITLE2=Part Of Me
TTITLE3=Shine Your Light
TTITLE4=The Ilse Of Innisfree
TTITLE5=Down To Earth
TTITLE6=I Will Love You All My Life
TTITLE7=Heaven Knows
TTITLE8=If Only
TTITLE9=I Say You
TTITLE10=Irish Waltz
TTITLE11=You Stand All Alone
EXTD=
EXTT0=
EXTT1=
EXTT2=
EXTT3=
EXTT4=
EXTT5=
EXTT6=
EXTT7=
EXTT8=
EXTT9=
EXTT10=
EXTT11=
PLAYORDER=
